<svg width="533" height="144" viewBox="0 0 533 144" fill="none" xmlns="http://www.w3.org/2000/svg">
<path fill-rule="evenodd" clip-rule="evenodd" d="M79.0261 1.08386H102.483C106.116 1.08386 109.088 4.05605 109.088 7.68897V26.9738H72.4211V7.68897C72.4211 4.05605 75.3931 1.08386 79.0261 1.08386ZM109.088 29.4136V36.531H72.4211V29.4136H109.088ZM109.088 38.9708V105.281H72.4211V38.9708H109.088ZM109.088 107.721V114.838H72.4211V107.721H109.088ZM109.088 117.278V136.563C109.088 140.195 106.116 143.168 102.483 143.168H79.0261C75.3931 143.168 72.4211 140.195 72.4211 136.563V117.278H109.088ZM45.6856 26.8888L67.6342 35.1636C71.0337 36.4452 72.7663 40.2748 71.4847 43.6742L66.5275 56.823L32.2014 43.9318L37.1752 30.7393C38.4567 27.3399 42.2863 25.6072 45.6856 26.8888ZM65.6689 59.1002L63.7856 64.0955L29.4812 51.1468L31.3427 46.209L65.6689 59.1002ZM62.927 66.3729L44.1325 116.224L9.84822 103.223L28.6227 53.4241L62.927 66.3729ZM43.2741 118.502L41.433 123.385L7.1283 110.438L8.98972 105.5L43.2741 118.502ZM40.5744 125.662L35.5856 138.895C34.304 142.295 30.4745 144.027 27.075 142.746L5.1263 134.471C1.72703 133.189 -0.00556126 129.36 1.27594 125.96L6.26959 112.715L40.5744 125.662ZM150.396 1.08386H126.939C123.306 1.08386 120.334 4.05605 120.334 7.68897V26.9738H157.001V7.68897C157.001 4.05605 154.029 1.08386 150.396 1.08386ZM157.001 36.531V29.4136H120.334V36.531H157.001ZM157.001 105.281V38.9708H120.334V105.281H157.001ZM157.001 114.838V107.721H120.334V114.838H157.001ZM157.001 136.563V117.278H120.334V136.563C120.334 140.195 123.306 143.168 126.939 143.168H150.396C154.029 143.168 157.001 140.195 157.001 136.563ZM100.145 66.4744C104.034 67.6637 106.57 69.5815 106.57 71.6052C106.57 73.6226 104.046 75.5404 100.183 76.7297C101.086 80.6774 100.694 83.8218 98.9428 84.8305C98.5315 85.0671 98.058 85.1792 97.5346 85.1792C95.821 85.1792 93.5778 83.9712 91.3097 81.8666C89.0416 83.9837 86.7984 85.2041 85.0849 85.2041C84.5615 85.2041 84.0879 85.092 83.6829 84.8554C81.9257 83.8467 81.527 80.696 82.4242 76.7359C78.536 75.5466 76 73.6288 76 71.6052C76 69.5877 78.5236 67.6762 82.3993 66.4807C81.4958 62.533 81.8884 59.3885 83.6393 58.3798C84.0505 58.1432 84.5241 58.0311 85.0475 58.0311V58.0249C86.761 58.0249 89.0042 59.2329 91.2723 61.3375C93.5404 59.2204 95.7836 58 97.4972 58V58.0062C98.0119 58.0071 98.4833 58.1193 98.8867 58.3549C100.644 59.3636 101.043 62.5143 100.145 66.4744ZM97.4909 59.3885C96.195 59.3919 94.2911 60.4252 92.2631 62.3088C93.1417 63.2241 94.014 64.2702 94.8552 65.4221C96.2572 65.5716 97.5906 65.802 98.8119 66.1008C98.949 65.4719 99.0612 64.8555 99.1297 64.2702C99.4163 61.8916 99.0487 60.0423 98.2013 59.5567C98.0081 59.4508 97.7776 59.3948 97.4909 59.3948V59.3885ZM90.2816 62.315C88.2503 60.4408 86.3373 59.4134 85.0475 59.4134V59.4197C84.7609 59.4197 84.5179 59.4695 84.3309 59.5816C83.4897 60.0735 83.1283 61.9228 83.4212 64.3013C83.496 64.8804 83.6019 65.4844 83.7452 66.1071C84.9665 65.802 86.2999 65.5716 87.7082 65.4221C88.5369 64.2702 89.4092 63.2304 90.2816 62.315ZM97.6156 69.9115C97.9396 69.0834 98.2262 68.2552 98.4568 67.452C97.6405 67.2528 96.7868 67.0909 95.902 66.9601C96.2073 67.4333 96.5127 67.919 96.7993 68.4171C97.0922 68.9153 97.3601 69.4134 97.6156 69.9115ZM94.1012 76.4619C94.6184 75.721 95.1169 74.924 95.6029 74.0834C96.0703 73.2677 96.5002 72.4333 96.8928 71.5989C96.5002 70.7646 96.0703 69.9364 95.5967 69.1208C95.1107 68.2864 94.606 67.4956 94.0888 66.7546C93.1666 66.6799 92.2257 66.6363 91.2848 66.6363C90.3377 66.6363 89.3968 66.6799 88.4684 66.7609C87.9512 67.5018 87.4527 68.2988 86.9667 69.1394C86.4993 69.9551 86.0632 70.7895 85.6768 71.6238C86.0694 72.4582 86.4993 73.2864 86.9729 74.1021C87.4589 74.9364 87.9636 75.7272 88.4808 76.4682C89.403 76.5429 90.3439 76.5865 91.2848 76.5865C92.2319 76.5865 93.1728 76.5429 94.1012 76.4619ZM98.4754 75.7521C98.2387 74.9426 97.952 74.1083 97.6156 73.2739C97.3601 73.772 97.0922 74.2764 96.8055 74.7745C96.5189 75.2789 96.2136 75.7708 95.9082 76.2502C96.7993 76.1195 97.6592 75.9514 98.4754 75.7521ZM89.565 77.9252C90.1383 78.6537 90.7178 79.32 91.2973 79.9177C91.8705 79.32 92.45 78.6537 93.0108 77.9252C92.4438 77.9563 91.8643 77.9688 91.2786 77.9688C90.6991 77.9688 90.1258 77.9501 89.565 77.9252ZM84.1066 75.7583C84.9229 75.9576 85.7765 76.1195 86.6613 76.2502C86.356 75.777 86.0569 75.2913 85.7641 74.7932C85.4712 74.2951 85.2033 73.7969 84.9478 73.2988C84.6238 74.127 84.3372 74.9551 84.1066 75.7583ZM92.9983 65.2851C92.4251 64.5566 91.8456 63.8904 91.2661 63.2926C90.6928 63.8904 90.1134 64.5566 89.5526 65.2851C90.1196 65.254 90.6991 65.2416 91.2848 65.2416C91.8643 65.2416 92.4375 65.2602 92.9983 65.2851ZM85.7578 68.4358C86.0445 67.9315 86.3498 67.4396 86.6551 66.9601C85.7641 67.0909 84.9042 67.259 84.0879 67.452C84.3247 68.2615 84.6113 69.0958 84.9478 69.9302C85.2033 69.4321 85.4712 68.934 85.7578 68.4358ZM77.3833 71.6052C77.3833 72.5827 78.8102 73.8156 81.016 74.7558C81.5581 74.9862 82.1438 75.1979 82.7607 75.391C83.1096 74.1768 83.5707 72.9128 84.144 71.6176C83.5645 70.3163 83.0972 69.046 82.742 67.8256C82.1376 68.0186 81.5519 68.2241 81.016 68.4545C78.8102 69.3885 77.3833 70.6276 77.3833 71.6052ZM83.4399 78.9401C83.1533 81.3187 83.5209 83.168 84.3683 83.6537C84.5553 83.7595 84.792 83.8156 85.0724 83.8218C86.3685 83.8218 88.2752 82.7882 90.3065 80.9015C89.4279 79.9862 88.5556 78.9401 87.7144 77.7882C86.3124 77.6388 84.979 77.4084 83.7577 77.1095C83.6206 77.7384 83.5084 78.3548 83.4399 78.9401ZM98.2387 83.6288C99.0799 83.1369 99.4413 81.2876 99.1484 78.909C99.0799 78.3299 98.9677 77.7259 98.8244 77.0971C97.6031 77.4022 96.2697 77.6325 94.8614 77.782C94.0327 78.9339 93.1604 79.9738 92.288 80.8891C94.3193 82.7633 96.2323 83.7907 97.5221 83.7907C97.8087 83.7907 98.0517 83.7409 98.2387 83.6288ZM99.8214 75.3847C100.426 75.1917 101.011 74.9862 101.547 74.7558C103.753 73.8218 105.18 72.5827 105.186 71.6052C105.186 70.6276 103.759 69.3947 101.554 68.4545C101.005 68.2241 100.42 68.0124 99.8027 67.8194C99.4537 69.0336 98.9926 70.2976 98.4194 71.5927C98.9989 72.8941 99.4662 74.1643 99.8214 75.3847ZM94.1262 71.6051C94.1262 73.1767 92.8512 74.4507 91.2785 74.4507C89.7059 74.4507 88.431 73.1767 88.431 71.6051C88.431 70.0336 89.7059 68.7596 91.2785 68.7596C92.8512 68.7596 94.1262 70.0336 94.1262 71.6051ZM154.57 71.6052C154.57 69.5815 152.034 67.6637 148.145 66.4744C149.043 62.5143 148.644 59.3636 146.887 58.3549C146.483 58.1193 146.012 58.0071 145.497 58.0062V58C143.784 58 141.54 59.2204 139.272 61.3375C137.004 59.2329 134.761 58.0249 133.048 58.0249V58.0311C132.524 58.0311 132.051 58.1432 131.639 58.3798C129.888 59.3885 129.496 62.533 130.399 66.4807C126.524 67.6762 124 69.5877 124 71.6052C124 73.6288 126.536 75.5466 130.424 76.7359C129.527 80.696 129.926 83.8467 131.683 84.8554C132.088 85.092 132.561 85.2041 133.085 85.2041C134.798 85.2041 137.042 83.9837 139.31 81.8666C141.578 83.9712 143.821 85.1792 145.535 85.1792C146.058 85.1792 146.532 85.0671 146.943 84.8305C148.694 83.8218 149.086 80.6774 148.183 76.7297C152.046 75.5404 154.57 73.6226 154.57 71.6052ZM140.263 62.3088C142.291 60.4252 144.195 59.3919 145.491 59.3885V59.3948C145.778 59.3948 146.008 59.4508 146.201 59.5567C147.049 60.0423 147.416 61.8916 147.13 64.2702C147.061 64.8555 146.949 65.4719 146.812 66.1008C145.591 65.802 144.257 65.5716 142.855 65.4221C142.014 64.2702 141.142 63.2241 140.263 62.3088ZM133.048 59.4134C134.337 59.4134 136.25 60.4408 138.282 62.315C137.409 63.2304 136.537 64.2702 135.708 65.4221C134.3 65.5716 132.966 65.802 131.745 66.1071C131.602 65.4844 131.496 64.8804 131.421 64.3013C131.128 61.9228 131.49 60.0735 132.331 59.5816C132.518 59.4695 132.761 59.4197 133.048 59.4197V59.4134ZM146.457 67.452C146.226 68.2552 145.94 69.0834 145.616 69.9115C145.36 69.4134 145.092 68.9153 144.799 68.4171C144.513 67.919 144.207 67.4333 143.902 66.9601C144.787 67.0909 145.64 67.2528 146.457 67.452ZM143.603 74.0834C143.117 74.924 142.618 75.721 142.101 76.4619C141.173 76.5429 140.232 76.5865 139.285 76.5865C138.344 76.5865 137.403 76.5429 136.481 76.4682C135.964 75.7272 135.459 74.9364 134.973 74.1021C134.499 73.2864 134.069 72.4582 133.677 71.6238C134.063 70.7895 134.499 69.9551 134.967 69.1394C135.453 68.2988 135.951 67.5018 136.468 66.7609C137.397 66.6799 138.338 66.6363 139.285 66.6363C140.226 66.6363 141.167 66.6799 142.089 66.7546C142.606 67.4956 143.111 68.2864 143.597 69.1208C144.07 69.9364 144.5 70.7646 144.893 71.5989C144.5 72.4333 144.07 73.2677 143.603 74.0834ZM145.616 73.2739C145.952 74.1083 146.239 74.9426 146.475 75.7521C145.659 75.9514 144.799 76.1195 143.908 76.2502C144.214 75.7708 144.519 75.2789 144.806 74.7745C145.092 74.2764 145.36 73.772 145.616 73.2739ZM139.297 79.9177C138.718 79.32 138.138 78.6537 137.565 77.9252C138.126 77.9501 138.699 77.9688 139.279 77.9688C139.864 77.9688 140.444 77.9563 141.011 77.9252C140.45 78.6537 139.871 79.32 139.297 79.9177ZM134.661 76.2502C133.777 76.1195 132.923 75.9576 132.107 75.7583C132.337 74.9551 132.624 74.127 132.948 73.2988C133.203 73.7969 133.471 74.2951 133.764 74.7932C134.057 75.2913 134.356 75.777 134.661 76.2502ZM139.266 63.2926C139.846 63.8904 140.425 64.5566 140.998 65.2851C140.438 65.2602 139.864 65.2416 139.285 65.2416C138.699 65.2416 138.12 65.254 137.553 65.2851C138.113 64.5566 138.693 63.8904 139.266 63.2926ZM134.655 66.9601C134.35 67.4396 134.044 67.9315 133.758 68.4358C133.471 68.934 133.203 69.4321 132.948 69.9302C132.611 69.0958 132.325 68.2615 132.088 67.452C132.904 67.259 133.764 67.0909 134.655 66.9601ZM129.016 74.7558C126.81 73.8156 125.383 72.5827 125.383 71.6052C125.383 70.6276 126.81 69.3885 129.016 68.4545C129.552 68.2241 130.138 68.0186 130.742 67.8256C131.097 69.046 131.565 70.3163 132.144 71.6176C131.571 72.9128 131.11 74.1768 130.761 75.391C130.144 75.1979 129.558 74.9862 129.016 74.7558ZM132.368 83.6537C131.521 83.168 131.153 81.3187 131.44 78.9401C131.508 78.3548 131.621 77.7384 131.758 77.1095C132.979 77.4084 134.312 77.6388 135.714 77.7882C136.556 78.9401 137.428 79.9862 138.307 80.9015C136.275 82.7882 134.368 83.8218 133.072 83.8218C132.792 83.8156 132.555 83.7595 132.368 83.6537ZM147.148 78.909C147.441 81.2876 147.08 83.1369 146.239 83.6288C146.052 83.7409 145.809 83.7907 145.522 83.7907C144.232 83.7907 142.319 82.7633 140.288 80.8891C141.16 79.9738 142.033 78.9339 142.861 77.782C144.27 77.6325 145.603 77.4022 146.824 77.0971C146.968 77.7259 147.08 78.3299 147.148 78.909ZM149.547 74.7558C149.012 74.9862 148.426 75.1917 147.821 75.3847C147.466 74.1643 146.999 72.8941 146.419 71.5927C146.993 70.2976 147.454 69.0336 147.803 67.8194C148.42 68.0124 149.005 68.2241 149.554 68.4545C151.759 69.3947 153.186 70.6276 153.186 71.6052C153.18 72.5827 151.753 73.8218 149.547 74.7558ZM142.126 71.6051C142.126 73.1767 140.851 74.4507 139.279 74.4507C137.706 74.4507 136.431 73.1767 136.431 71.6051C136.431 70.0336 137.706 68.7596 139.279 68.7596C140.851 68.7596 142.126 70.0336 142.126 71.6051ZM50.6369 89.8596C51.3326 87.9593 49.6104 85.2865 46.3681 82.833C48.5721 79.4227 49.2807 76.327 47.9774 74.7757C47.6796 74.4157 47.2755 74.1484 46.7925 73.9706L46.7946 73.9647C45.1855 73.3756 42.6595 73.7505 39.8018 74.9588C38.3955 72.2028 36.7043 70.2973 35.0952 69.7082L35.093 69.714C34.6015 69.5341 34.1183 69.4765 33.6508 69.5574C31.6598 69.9027 30.2102 72.7205 29.7015 76.7382C25.651 76.5284 22.624 77.4559 21.9305 79.3504C21.2348 81.2507 22.957 83.9235 26.1993 86.3769C23.9954 89.7872 23.2867 92.883 24.59 94.4343C24.889 94.7957 25.2952 95.0638 25.7867 95.2437C27.3958 95.8328 29.9218 95.4579 32.7794 94.2496C34.1858 97.0057 35.877 98.9112 37.4861 99.5002C37.9776 99.6802 38.4608 99.7377 38.9284 99.6569C40.9193 99.3116 42.369 96.4938 42.8777 92.4761C46.9143 92.6874 49.9434 91.754 50.6369 89.8596ZM46.3114 75.2665L46.3093 75.2723C46.5784 75.3709 46.7757 75.5028 46.9207 75.6686C47.5495 76.416 47.2589 78.2789 46.1721 80.414C45.9065 80.9401 45.5893 81.4804 45.2443 82.0238C44.2002 81.3233 43.0273 80.6485 41.7621 80.0262C41.3682 78.6553 40.9086 77.3731 40.3982 76.2116C42.9503 75.1399 45.0933 74.8241 46.3114 75.2665ZM34.6178 71.0121C35.829 71.4555 37.2722 73.0779 38.5354 75.5362C37.4015 76.0958 36.2249 76.7724 35.0507 77.5692C33.6769 77.2255 32.3455 76.9834 31.0938 76.85C31.1733 76.2161 31.2814 75.6125 31.4103 75.043C31.953 72.7087 32.9281 71.0964 33.8871 70.9236C34.1012 70.8826 34.3465 70.9194 34.6157 71.0179L34.6178 71.0121ZM44.4463 83.1705C43.9537 83.8455 43.3998 84.5247 42.8109 85.1909C42.7422 84.6354 42.6618 84.0755 42.5581 83.507C42.4602 82.9407 42.3404 82.3797 42.2164 81.8303C43.0023 82.2573 43.7483 82.7028 44.4463 83.1705ZM39.4867 88.4166C38.7413 89.0389 37.9992 89.616 37.2588 90.134C36.3592 89.8908 35.4606 89.6083 34.5713 89.2827C33.6877 88.9592 32.8191 88.5948 31.9788 88.2076C31.7479 87.334 31.5458 86.4179 31.3762 85.4673C31.212 84.5386 31.0929 83.6131 31.0111 82.6946C31.6607 82.0439 32.3572 81.4104 33.0764 80.8051C33.8218 80.1828 34.5639 79.6057 35.3043 79.0877C36.204 79.3309 37.1025 79.6134 37.9919 79.939C38.8754 80.2625 39.744 80.6268 40.5843 81.014C40.8152 81.8876 41.0173 82.8037 41.1869 83.7543C41.3512 84.6831 41.4702 85.6086 41.552 86.527C40.8965 87.1756 40.206 87.8113 39.4867 88.4166ZM41.6549 88.3484C41.6841 89.2476 41.6664 90.1296 41.6105 90.9712C40.7755 90.8777 39.9102 90.7399 39.0285 90.5564C39.48 90.2111 39.9359 89.8542 40.3784 89.4791C40.8188 89.1098 41.2438 88.7283 41.6549 88.3484ZM33.4377 92.4152C33.0991 91.6546 32.7839 90.8298 32.4961 89.9486C33.0141 90.1648 33.546 90.3794 34.0902 90.5786C34.6402 90.78 35.1887 90.9675 35.7318 91.1332C34.9548 91.6245 34.1816 92.0509 33.4377 92.4152ZM30.3452 87.3775C29.5593 86.9505 28.8133 86.505 28.1153 86.0373C28.6079 85.3623 29.1617 84.6832 29.7507 84.0169C29.8194 84.5725 29.8997 85.1324 30.0035 85.7008C30.1073 86.2693 30.2212 86.8282 30.3452 87.3775ZM39.1238 76.7927C39.4625 77.5532 39.7776 78.3781 40.0655 79.2592C39.5474 79.0431 39.0155 78.8285 38.4714 78.6292C37.9214 78.4279 37.3729 78.2404 36.8297 78.0747C37.6068 77.5833 38.38 77.1569 39.1238 76.7927ZM33.5331 78.6515C33.0815 78.9967 32.6257 79.3537 32.1832 79.7288C31.7428 80.098 31.3199 80.4737 30.9088 80.8536C30.8796 79.9544 30.8973 79.0724 30.9532 78.2308C31.7861 78.3302 32.6514 78.4679 33.5331 78.6515ZM25.5577 84.0334C23.8095 82.3922 22.8934 80.744 23.2295 79.826C23.5656 78.908 25.3315 78.2349 27.7239 78.1162C28.3063 78.084 28.927 78.0924 29.5609 78.119C29.4749 79.3871 29.4771 80.7406 29.5739 82.1618C28.5903 83.181 27.7228 84.2094 26.9777 85.2296C26.4648 84.8363 25.9875 84.4361 25.5577 84.0334ZM25.6468 93.5414C25.018 92.794 25.3085 90.931 26.3953 88.796C26.6609 88.2699 26.9782 87.7296 27.3231 87.1862C28.3672 87.8867 29.5402 88.5614 30.8053 89.1838C31.1992 90.5546 31.6588 91.8369 32.1692 92.9984C29.6131 94.0718 27.4672 94.3869 26.2502 93.9414C25.989 93.8391 25.7859 93.7051 25.6468 93.5414ZM41.1571 94.167C40.6145 96.5013 39.6393 98.1136 38.6803 98.2864C38.4662 98.3273 38.2209 98.2906 37.9517 98.192C36.7405 97.7486 35.2974 96.1262 34.0342 93.6679C35.168 93.1083 36.3447 92.4317 37.5189 91.6349C38.8927 91.9787 40.224 92.2207 41.4758 92.3541C41.3942 92.9939 41.2919 93.5996 41.1571 94.167ZM44.8377 91.0917C44.2552 91.1238 43.6346 91.1154 43.0006 91.0889C43.0867 89.8207 43.0845 88.4673 42.9877 87.046C43.9713 86.0269 44.8388 84.9984 45.5839 83.9782C46.0968 84.3715 46.5741 84.7717 47.0098 85.1765C48.7579 86.8178 49.674 88.466 49.3379 89.384C48.996 90.2999 47.2301 90.9729 44.8377 91.0917ZM38.9519 85.5817C38.4116 87.0575 36.7764 87.8156 35.2996 87.2749C33.8228 86.7343 33.0636 85.0996 33.6038 83.6238C34.1441 82.1481 35.7793 81.39 37.2561 81.9307C38.7329 82.4713 39.4922 84.106 38.9519 85.5817Z" fill="#31A1C5"/>
<path d="M206.564 106.158C209.828 106.158 212.783 106.904 215.43 108.395C218.121 109.886 220.238 112.035 221.782 114.842C223.37 117.605 224.164 120.829 224.164 124.513C224.164 128.197 223.37 131.443 221.782 134.25C220.238 137.057 218.121 139.228 215.43 140.763C212.783 142.254 209.828 143 206.564 143C201.844 143 198.315 141.618 195.977 138.855V142.408H184V93.5921H196.572V109.842C198.998 107.386 202.329 106.158 206.564 106.158ZM203.917 133.066C206.122 133.066 207.931 132.32 209.343 130.829C210.754 129.294 211.46 127.189 211.46 124.513C211.46 121.882 210.754 119.82 209.343 118.329C207.931 116.838 206.122 116.092 203.917 116.092C201.711 116.092 199.903 116.838 198.491 118.329C197.079 119.82 196.374 121.882 196.374 124.513C196.374 127.189 197.079 129.294 198.491 130.829C199.903 132.32 201.711 133.066 203.917 133.066Z" fill="#2C3F56"/>
<path d="M248.006 143C244.168 143 240.705 142.211 237.617 140.632C234.53 139.053 232.103 136.86 230.339 134.053C228.618 131.246 227.758 128.066 227.758 124.513C227.758 121.004 228.618 117.846 230.339 115.039C232.103 112.232 234.507 110.061 237.551 108.526C240.639 106.947 244.124 106.158 248.006 106.158C251.888 106.158 255.373 106.947 258.461 108.526C261.548 110.061 263.953 112.232 265.673 115.039C267.393 117.803 268.254 120.961 268.254 124.513C268.254 128.066 267.393 131.246 265.673 134.053C263.953 136.86 261.548 139.053 258.461 140.632C255.373 142.211 251.888 143 248.006 143ZM248.006 133.066C250.212 133.066 252.02 132.32 253.432 130.829C254.843 129.294 255.549 127.189 255.549 124.513C255.549 121.882 254.843 119.82 253.432 118.329C252.02 116.838 250.212 116.092 248.006 116.092C245.8 116.092 243.992 116.838 242.58 118.329C241.168 119.82 240.463 121.882 240.463 124.513C240.463 127.189 241.168 129.294 242.58 130.829C243.992 132.32 245.8 133.066 248.006 133.066Z" fill="#2C3F56"/>
<path d="M292.075 143C288.238 143 284.775 142.211 281.687 140.632C278.599 139.053 276.173 136.86 274.408 134.053C272.688 131.246 271.828 128.066 271.828 124.513C271.828 121.004 272.688 117.846 274.408 115.039C276.173 112.232 278.577 110.061 281.621 108.526C284.709 106.947 288.193 106.158 292.075 106.158C295.957 106.158 299.442 106.947 302.53 108.526C305.618 110.061 308.022 112.232 309.742 115.039C311.463 117.803 312.323 120.961 312.323 124.513C312.323 128.066 311.463 131.246 309.742 134.053C308.022 136.86 305.618 139.053 302.53 140.632C299.442 142.211 295.957 143 292.075 143ZM292.075 133.066C294.281 133.066 296.09 132.32 297.501 130.829C298.913 129.294 299.619 127.189 299.619 124.513C299.619 121.882 298.913 119.82 297.501 118.329C296.09 116.838 294.281 116.092 292.075 116.092C289.87 116.092 288.061 116.838 286.649 118.329C285.238 119.82 284.532 121.882 284.532 124.513C284.532 127.189 285.238 129.294 286.649 130.829C288.061 132.32 289.87 133.066 292.075 133.066Z" fill="#2C3F56"/>
<path d="M334.424 129.908L330.719 133.658V142.408H318.147V93.5921H330.719V119.184L343.556 106.75H358.444L343.556 122.013L359.701 142.408H344.482L334.424 129.908Z" fill="#2C3F56"/>
<path d="M375.316 143C372.317 143 369.361 142.671 366.45 142.013C363.538 141.311 361.2 140.412 359.436 139.316L363.207 130.763C364.839 131.772 366.78 132.583 369.03 133.197C371.28 133.768 373.508 134.053 375.713 134.053C377.742 134.053 379.176 133.855 380.014 133.461C380.896 133.022 381.338 132.408 381.338 131.618C381.338 130.829 380.808 130.281 379.749 129.974C378.735 129.623 377.103 129.294 374.853 128.987C371.986 128.636 369.537 128.175 367.508 127.605C365.523 127.035 363.803 125.982 362.347 124.447C360.891 122.912 360.164 120.763 360.164 118C360.164 115.719 360.847 113.702 362.215 111.947C363.582 110.149 365.567 108.746 368.17 107.737C370.817 106.684 373.971 106.158 377.632 106.158C380.235 106.158 382.815 106.421 385.374 106.947C387.932 107.474 390.072 108.219 391.792 109.184L388.021 117.671C384.844 115.917 381.404 115.039 377.698 115.039C375.713 115.039 374.257 115.281 373.331 115.763C372.405 116.202 371.942 116.794 371.942 117.539C371.942 118.373 372.449 118.965 373.463 119.316C374.478 119.623 376.154 119.952 378.492 120.303C381.448 120.741 383.896 121.246 385.837 121.816C387.778 122.386 389.454 123.439 390.866 124.974C392.322 126.465 393.049 128.57 393.049 131.289C393.049 133.526 392.366 135.544 390.998 137.342C389.631 139.096 387.602 140.478 384.911 141.487C382.264 142.496 379.066 143 375.316 143Z" fill="#2C3F56"/>
<path d="M421.825 106.158C426.28 106.158 429.853 107.474 432.544 110.105C435.279 112.737 436.646 116.706 436.646 122.013V142.408H424.074V124.053C424.074 119.184 422.111 116.75 418.185 116.75C416.024 116.75 414.281 117.452 412.958 118.855C411.679 120.259 411.039 122.364 411.039 125.171V142.408H398.467V93.5921H411.039V110.039C412.407 108.768 414.017 107.803 415.869 107.145C417.722 106.487 419.707 106.158 421.825 106.158Z" fill="#2C3F56"/>
<path d="M481.714 124.645C481.714 124.732 481.648 125.763 481.516 127.737H455.445C455.974 129.579 456.989 131.004 458.489 132.013C460.033 132.978 461.952 133.461 464.245 133.461C465.966 133.461 467.444 133.219 468.679 132.737C469.958 132.254 471.237 131.465 472.517 130.368L479.133 137.211C475.649 141.07 470.554 143 463.848 143C459.658 143 455.974 142.211 452.798 140.632C449.622 139.053 447.152 136.86 445.387 134.053C443.667 131.246 442.807 128.066 442.807 124.513C442.807 121.004 443.645 117.868 445.321 115.105C447.042 112.298 449.402 110.105 452.401 108.526C455.401 106.947 458.776 106.158 462.525 106.158C466.098 106.158 469.34 106.904 472.252 108.395C475.163 109.842 477.457 111.969 479.133 114.776C480.854 117.539 481.714 120.829 481.714 124.645ZM462.591 115.039C460.65 115.039 459.018 115.588 457.695 116.684C456.416 117.781 455.599 119.272 455.247 121.158H469.936C469.583 119.272 468.745 117.781 467.422 116.684C466.142 115.588 464.532 115.039 462.591 115.039Z" fill="#2C3F56"/>
<path d="M487.511 93.5921H500.083V142.408H487.511V93.5921Z" fill="#2C3F56"/>
<path d="M521.95 108.066H530.486V117.408H522.281V142.408H509.709V117.408H504.481V108.066H509.709V107.145C509.709 102.803 511.01 99.3596 513.613 96.8158C516.259 94.2719 519.943 93 524.663 93C526.251 93 527.795 93.1535 529.295 93.4605C530.794 93.7675 532.03 94.2281 533 94.8421L529.89 103.658C528.655 102.956 527.398 102.605 526.118 102.605C524.795 102.605 523.758 103 523.009 103.789C522.303 104.579 521.95 105.741 521.95 107.276V108.066Z" fill="#2C3F56"/>
<path d="M215.583 52.9451H204.789V71.5962H185V1.40385H216.983C223.312 1.40385 228.809 2.47345 233.474 4.61264C238.138 6.68499 241.736 9.69323 244.268 13.6374C246.8 17.5147 248.066 22.0939 248.066 27.375C248.066 32.4556 246.866 36.9011 244.468 40.7115C242.136 44.4551 238.771 47.3965 234.373 49.5357L249.465 71.5962H228.276L215.583 52.9451ZM228.077 27.375C228.077 24.0994 227.044 21.5591 224.978 19.7541C222.913 17.9492 219.848 17.0467 215.783 17.0467H204.789V37.603H215.783C219.848 37.603 222.913 36.734 224.978 34.9959C227.044 33.1909 228.077 30.6506 228.077 27.375Z" fill="#2C3F56"/>
<path d="M315.152 56.2541V71.5962H258.983V1.40385H313.853V16.7459H278.572V28.5783H309.655V43.419H278.572V56.2541H315.152Z" fill="#2C3F56"/>
<path d="M373.008 57.9588H343.425L337.928 71.5962H317.739L348.622 1.40385H368.111L399.094 71.5962H378.505L373.008 57.9588ZM367.212 43.3187L358.216 20.8571L349.221 43.3187H367.212Z" fill="#2C3F56"/>
<path d="M438.609 73C431.28 73 424.684 71.4625 418.82 68.3874C413.023 65.2454 408.459 60.9002 405.128 55.3517C401.796 49.8031 400.13 43.5192 400.13 36.5C400.13 29.4808 401.796 23.1969 405.128 17.6484C408.459 12.0998 413.023 7.788 418.82 4.71291C424.684 1.57097 431.28 0 438.609 0C445.006 0 450.769 1.13645 455.9 3.40934C461.03 5.68224 465.295 8.95788 468.693 13.2363L456.1 24.6676C451.569 19.1859 446.072 16.4451 439.609 16.4451C435.811 16.4451 432.413 17.2807 429.414 18.9519C426.483 20.6232 424.184 22.9963 422.518 26.0714C420.919 29.0797 420.119 32.5559 420.119 36.5C420.119 40.4441 420.919 43.9538 422.518 47.0289C424.184 50.0371 426.483 52.3768 429.414 54.0481C432.413 55.7193 435.811 56.5549 439.609 56.5549C446.072 56.5549 451.569 53.8141 456.1 48.3324L468.693 59.7637C465.295 64.0421 461.03 67.3178 455.9 69.5907C450.769 71.8636 445.006 73 438.609 73Z" fill="#2C3F56"/>
<path d="M491.822 17.147H470.334V1.40385H533V17.147H511.612V71.5962H491.822V17.147Z" fill="#2C3F56"/>
</svg>
